<svg viewBox="0 0 20 20" xmlns="http://www.w3.org/2000/svg" >
  <path
     fill="rgb(0,0,191)"
     d="m 11.25,3.125 v 1.09375 l 1.5625,0.9765625 V 6.5625 H 7.4999999 V 5.625 h 0.625 c 1.25,0 1.25,-1.25 0,-1.25 h -2.5 c -1.25,0 -1.25,1.25 0,1.25 h 0.625 V 6.5625 L 5.0781249,8.75 c -0.026125,-5.821e-4 -0.0519,0 -0.078125,0 -2.0153538,0 -3.75,1.734646 -3.75,3.75 0,2.015354 1.7346462,3.75 3.75,3.75 2.0153537,0 3.75,-1.734646 3.75,-3.75 0,-0.432461 -0.089462,-0.858226 -0.234375,-1.25 h 0.546875 c 0.9375,0 1.1534331,-0.567495 1.4843751,-0.898437 L 12.773438,7.8125 13.4375,9.1015625 C 12.159328,9.7073948 11.25,11.031094 11.25,12.5 c 0,2.015354 1.734646,3.75 3.75,3.75 2.015354,0 3.75,-1.734646 3.75,-3.75 0,-2.015354 -1.734646,-3.75 -3.75,-3.75 -0.03934,0 -0.07808,-0.00131 -0.117187,0 L 13.75,6.5625 V 4.5703125 Z M 7.2265624,7.8125 H 11.132813 L 9.1796874,10 h -1.40625 c -0.0231,0 -0.054487,0.0026 -0.078125,0 C 7.3660586,9.6463159 6.9994024,9.3504739 6.5624999,9.140625 6.5471874,9.1173375 6.5373874,9.0856825 6.5234374,9.0625 Z M 4.9999999,10 c 1.2571387,0 2.5,1.242862 2.5,2.5 0,1.257139 -1.2428613,2.5 -2.5,2.5 -1.2571388,0 -2.5,-1.242861 -2.5,-2.5 0,-1.257138 1.2428612,-2.5 2.5,-2.5 z M 15,10 c 1.257137,0 2.5,1.242862 2.5,2.5 0,1.257139 -1.242863,2.5 -2.5,2.5 -1.257139,0 -2.5,-1.242861 -2.5,-2.5 0,-1.257138 1.242861,-2.5 2.5,-2.5 z" />
</svg>
