<svg xmlns="http://www.w3.org/2000/svg" viewBox="0 0 20 20" >
	<g fill="rgb(0,0,191)">
		<path d="m 2,13 a 1.7142857,1.7142857 0 0 0 1.7142857,1.714286 H 16.285714 A 1.7142857,1.7142857 0 0 0 18,13 V 9.5714286 A 1.7142857,1.7142857 0 0 0 16.285714,7.8571429 H 3.7142857 A 1.7142857,1.7142857 0 0 0 2,9.5714286 Z m 1.8285714,-2.285714 a 1.0285714,1.0285714 0 1 1 0,0.01143 z m 10.2857146,0 a 1.0285714,1.0285714 0 1 1 0,0.01143 z" />
		<path d="M 4.2857143,7.8571429 V 5 A 1.7142857,1.7142857 0 0 1 6,3.2857143 h 8 A 1.7142857,1.7142857 0 0 1 15.714286,5 V 7.8571429 H 14 V 6.1428571 A 1.1428571,1.1428571 0 0 0 12.857143,5 H 7.1428571 A 1.1428571,1.1428571 0 0 0 6,6.1428571 v 1.7142858 z" />
		<g transform="matrix(1.1428571,0,0,1.1428571,2,2.1428571)">
			<rect x="1" y="10" width="2" height="3" />
			<rect x="11" y="10" width="2" height="3" />
		</g>
	</g>
</svg>
