<svg viewBox="0 0 20 20"  xmlns="http://www.w3.org/2000/svg">
	<g fill="rgb(0,0,191)" transform="matrix(0.15866777,0,0,0.12627988,148.47251,-116.69398)">
		<path d="m -875.5,962.4 c 2,-1.5 4.6,-2.3 7.4,-2.2 3.6,0.3 6.7,2.5 8.4,5.2 l 10.7,21.2 14.5,10.1 c 1.2,1 2,2.5 1.9,4.2 -0.1,2.6 -2.5,4.6 -5.2,4.3 -0.7,0 -1.5,-0.3 -2.2,-0.7 l -15.6,-10.7 c -0.4,-0.4 -0.9,-0.9 -1.2,-1.5 l -4.1,-7.9 -4.8,21.1 18.9,22.3 c 0.4,0.7 0.7,1.5 0.9,2.2 l 5.1,26.9 c 0,0.6 0,1 0,1.5 -0.3,4.1 -3.8,6.8 -7.7,6.7 -3.2,-0.3 -5.7,-2.6 -6.5,-5.7 l -4.8,-25.1 -15.3,-17 -3.6,16.3 c -0.1,0.7 -1.2,2.3 -1.5,2.9 l -14.6,24.9 c -1.5,2.2 -3.9,3.8 -6.7,3.4 -4.1,-0.3 -7,-3.8 -6.7,-7.7 0.1,-1.2 0.6,-2.2 1,-3.1 l 13.7,-22.8 11.4,-50.4 -7.4,6 -4.1,18 c -0.4,2.2 -2.6,4.2 -5.1,4.1 -2.6,-0.1 -4.6,-2.5 -4.5,-5.2 0,-0.1 0,-0.4 0.1,-0.6 l 4.6,-20.9 c 0.3,-0.9 0.7,-1.6 1.5,-2.2 z" />
		<path d="m -884.5,943.5 c 1.3,8.6 8.7,15.3 17.8,15.3 5.7,0 10.2,-4.6 10.2,-10.2 0,-5.6 -4.6,-10.2 -10.2,-10.2 -3.9,0 -7.2,2 -8.9,5.2 -0.2,0.4 -0.5,0.7 -0.8,1 -2,2 -5.3,2 -7.3,0 -0.4,-0.4 -0.6,-0.7 -0.8,-1.1 z" />
	</g>
</svg>
