<svg viewBox="-3 -3 20 20" xmlns="http://www.w3.org/2000/svg">
	<g fill="rgb(0,146,218)">
		<path d="M 3.5,1 C 2.671573,1 2,1.671573 2,2.5 2,3.328427 2.671573,4 3.5,4 4.328427,4 5,3.328427 5,2.5 5,1.671573 4.328427,1 3.5,1 Z M 6,2 v 2 h 6 C 12,3 10.963825,2 10,2 Z M 3.5,7 C 2.671573,7 2,7.671573 2,8.5 2,9.328427 2.671573,10 3.5,10 4.328427,10 5,9.328427 5,8.5 5,7.671573 4.328427,7 3.5,7 Z M 6,8 v 2 l 6,0.01288 C 12,9 10.963825,8 10,8 Z" />
		<rect y="1" x="0" height="13" width="1" />
		<rect ry="0.5" y="0" x="0" height="13" width="1" />
		<rect y="4" x="13" height="10" width="1" />
		<rect ry="0.5" y="2" x="13" height="12" width="1" />
		<rect transform="rotate(90)" y="-13" x="5" height="13" width="1" />
		<rect transform="rotate(90)" y="-13" x="11" height="13" width="1" />
	</g>
</svg>