<svg viewBox="0 0 20 20" xmlns="http://www.w3.org/2000/svg">
	<g fill="rgb(0,102,0)" transform="matrix(0.07464447,0,0,0.07464618,2.9999711,2.4153144)">
		<path d="M 176.905,87.924 C 190.563,66.921 193.328,40.83 171.749,21.047 151.135,2.149 113.694,2.576 99.954,28.478 93.561,21.119 85.257,15.818 75.579,14.236 75.517,14.214 75.461,14.186 75.399,14.164 51.241,5.833 35.692,28.982 28.121,47.888 c -0.146,0.365 -0.169,0.78 -0.14,1.202 -7.327,0.862 -14.248,4.46 -19.619,11.867 -12.764,17.604 -9.208,41.61 -0.691,60.204 5.376,11.738 18.687,23.891 31.83,22.845 -0.234,10.347 0.309,21.086 1.45,31.263 0.648,5.779 9.216,6.098 9.242,0 0.023,-5.379 -0.136,-10.757 -0.142,-16.136 -0.006,-4.395 1.078,-9.01 1.301,-13.44 7.077,-5.613 13.007,-11.794 17.53,-18.394 2.082,2.042 4.643,3.15 7.398,3.545 0.061,2.584 0.589,5.302 0.749,7.052 0.601,6.58 0.653,15.738 4.331,21.448 2.488,3.862 9.385,2.642 9.108,-2.467 -0.278,-5.128 -2.336,-10.372 -3.46,-15.378 -0.826,-3.678 -1.686,-7.548 -3.018,-11.176 0.248,-0.064 0.499,-0.105 0.745,-0.178 3.324,-0.965 9.758,-3.918 12.533,-7.789 5.215,7.292 12.996,12.471 23.378,13.083 0.494,0.028 0.946,-0.009 1.429,0.002 -1.346,3.897 -0.388,9.527 -0.407,13.158 -0.033,5.958 0.142,11.928 0.229,17.886 0.109,7.351 11.52,7.361 11.41,0 -0.088,-5.921 -0.541,-11.936 -1.334,-17.803 -0.486,-3.591 -0.484,-10.02 -2.738,-13.788 13.157,-2.58 20.707,-13.232 23.431,-25.604 0.222,0.109 0.451,0.203 0.688,0.28 -0.906,2.753 -1.308,6.178 -1.361,6.887 -0.414,5.378 -0.438,10.727 -0.423,16.117 0.012,3.957 -0.763,9.411 1.383,12.896 1.93,3.137 6.572,3.224 8.483,0 3.188,-5.376 0.338,-15.222 -0.248,-21.097 -0.358,-3.606 -0.353,-12.387 -2.895,-16.081 1.979,-1.576 3.896,-3.246 5.742,-4.995 5.472,-3.956 9.798,-9.244 12.87,-15.373 z m -20.531,10.505 c -0.838,0.474 -1.656,0.972 -2.557,1.367 0.563,-21.218 -11.614,-42.838 -33.31,-36.312 -2.396,-0.24 -4.653,-0.23 -6.77,0.011 -0.397,-9.093 -3.046,-18.146 -7.437,-26.01 7.653,-28.25 47.522,-20.9 60.516,-1.019 7.98,12.208 9.534,30.548 3.882,44.807 -4.033,6.427 -9.072,12.307 -14.324,17.156 z M 55.048,128.861 C 38.221,141.316 21.446,128.221 13.628,112.895 8.726,101.97 7.671,88.983 10.147,77.529 c 0.53,-2.163 1.201,-4.27 2.026,-6.271 8.351,-18.883 32.386,-15.113 46.088,-1.123 11.168,17.659 12.089,47.4 -3.213,58.726 z M 92.284,112.9 c -2.985,1.598 -5.319,4.719 -8.437,6.352 -3.592,1.881 -7.259,2.103 -10.944,1.485 8.074,-15.731 7.816,-33.512 -5.3,-51.846 -2.548,-3.562 -5.708,-6.853 -9.255,-9.705 -6.189,-6.982 -13.872,-11.07 -22.308,-10.04 0.211,-0.376 0.423,-0.75 0.637,-1.126 0.874,0.479 2.074,0.511 3.709,-0.18 0.108,-0.045 0.204,-0.213 0.188,-0.328 -0.351,-2.634 0.058,-5.19 1.025,-7.61 2.912,-4.414 6.136,-8.453 9.868,-11.579 3.353,-2.41 7.096,-4.329 10.738,-5.602 4.165,-0.986 8.858,-0.9 14.237,0.676 17.331,5.078 23.827,28.129 27.013,43.603 -13.61,8.357 -17.242,29.336 -11.171,45.9 z m 25.267,13.163 c -13.893,-1.927 -19.55,-17.335 -19.633,-29.524 -0.089,-13.044 7.209,-22.779 18.156,-28.03 0.357,1.894 1.973,3.48 4.458,2.781 32.091,-9.022 34.619,59.985 -2.981,54.773 z"/>
	</g>
</svg>