<svg viewBox="0 0 20 20" xmlns="http://www.w3.org/2000/svg">
	<g fill="rgb(0,102,0)" transform="matrix(0.30287494,0,0,0.3028752,3.0001583,2.8052512)">
		<path d="m 23.243,28.731 h 0.074 c 0.581,0 1.113,-0.339 1.378,-0.854 0.268,-0.517 0.225,-1.145 -0.11,-1.619 L 20.194,20.05 c 0.199,-0.141 0.365,-0.331 0.48,-0.556 0.267,-0.515 0.224,-1.137 -0.111,-1.611 L 16.89,12.692 c -0.291,-0.411 -0.763,-0.656 -1.268,-0.656 -0.503,0 -0.977,0.244 -1.268,0.655 l -3.673,5.191 c -0.335,0.474 -0.378,1.094 -0.111,1.61 0.117,0.225 0.283,0.414 0.482,0.554 l -4.39,6.205 c -0.335,0.475 -0.378,1.11 -0.111,1.625 0.266,0.517 0.798,0.854 1.379,0.854 h 0.073 l -5.669,7.996 c -0.335,0.474 -0.377,1.1 -0.111,1.616 0.267,0.515 0.799,0.843 1.379,0.843 h 9.761 v 3.653 c 0,0.857 0.7,1.541 1.558,1.541 h 1.071 c 0.858,0 1.566,-0.684 1.566,-1.541 v -3.653 h 10.088 c 0.58,0 1.112,-0.337 1.379,-0.851 0.266,-0.517 0.224,-1.129 -0.111,-1.603 z"/>
		<path d="m 28.896,15.013 h 0.592 l -3.955,5.585 c -0.153,0.218 -0.174,0.511 -0.051,0.748 0.123,0.237 0.367,0.393 0.634,0.393 h 6.824 v 2.627 c 0,0.395 0.312,0.703 0.707,0.703 h 1.252 c 0.395,0 0.704,-0.309 0.704,-0.703 v -2.627 h 7.041 c 0.266,0 0.512,-0.157 0.634,-0.395 0.123,-0.237 0.104,-0.524 -0.052,-0.742 l -3.954,-5.589 h 0.593 c 0.268,0 0.513,-0.152 0.634,-0.39 0.123,-0.237 0.104,-0.524 -0.051,-0.743 L 37.431,9.616 C 37.638,9.572 37.818,9.439 37.918,9.247 38.04,9.009 38.021,8.724 37.865,8.505 L 34.963,4.401 C 34.828,4.212 34.61,4.099 34.38,4.099 c -0.231,0 -0.449,0.113 -0.583,0.302 l -2.903,4.103 c -0.154,0.219 -0.174,0.504 -0.051,0.742 0.099,0.192 0.279,0.325 0.484,0.369 l -3.016,4.263 c -0.155,0.218 -0.174,0.508 -0.052,0.745 0.124,0.238 0.37,0.39 0.637,0.39 z"/>
		<path d="m 46.091,41.649 -3.162,-4.461 h 0.263 c 0.267,0 0.511,-0.158 0.634,-0.396 0.123,-0.236 0.104,-0.527 -0.051,-0.744 l -2.423,-3.427 c 0.136,-0.065 0.25,-0.174 0.324,-0.313 0.123,-0.237 0.103,-0.523 -0.053,-0.741 l -2.188,-3.095 c -0.134,-0.189 -0.353,-0.303 -0.583,-0.303 -0.231,0 -0.449,0.112 -0.583,0.303 l -2.19,3.094 c -0.153,0.218 -0.174,0.504 -0.051,0.74 0.072,0.14 0.188,0.248 0.322,0.313 l -2.422,3.423 c -0.154,0.219 -0.174,0.514 -0.052,0.75 0.123,0.237 0.367,0.396 0.635,0.396 h 0.263 l -3.163,4.461 c -0.154,0.218 -0.174,0.506 -0.051,0.744 0.123,0.236 0.368,0.389 0.634,0.389 h 5.473 v 2.07 c 0,0.395 0.299,0.727 0.692,0.727 h 0.805 c 0.396,0 0.701,-0.332 0.701,-0.727 v -2.07 h 5.643 c 0.268,0 0.513,-0.152 0.636,-0.389 0.122,-0.238 0.102,-0.526 -0.053,-0.744 z"/>
		<path d="m 4.705,13.882 c 0,0.358 0.316,0.666 0.674,0.666 h 0.448 c 0.357,0 0.676,-0.308 0.676,-0.666 V 12.35 h 4.194 c 0.242,0 0.465,-0.138 0.576,-0.354 0.111,-0.215 0.093,-0.485 -0.047,-0.684 L 8.857,7.955 H 8.888 C 9.131,7.955 9.353,7.829 9.464,7.613 9.575,7.397 9.558,7.142 9.417,6.945 L 7.582,4.353 C 7.665,4.294 7.735,4.218 7.784,4.124 7.896,3.909 7.878,3.65 7.738,3.452 L 6.201,1.282 C 6.08,1.11 5.884,1.007 5.672,1.007 5.462,1.007 5.264,1.11 5.143,1.281 L 3.608,3.452 C 3.468,3.65 3.45,3.909 3.561,4.125 3.61,4.219 3.681,4.297 3.764,4.356 L 1.929,6.949 C 1.789,7.147 1.771,7.398 1.882,7.613 1.994,7.828 2.216,7.955 2.458,7.955 h 0.03 l -2.369,3.357 c -0.141,0.198 -0.158,0.465 -0.047,0.68 0.111,0.215 0.334,0.358 0.576,0.358 h 4.057 z"/>
		<path d="m 18.694,9.619 h 3.458 v 1.309 c 0,0.202 0.162,0.356 0.363,0.356 h 0.632 c 0.201,0 0.336,-0.154 0.336,-0.356 V 9.619 h 3.593 c 0.137,0 0.262,-0.091 0.324,-0.212 C 27.463,9.286 27.453,9.121 27.374,9.01 L 25.367,6.156 h 0.297 c 0.137,0 0.262,-0.065 0.324,-0.186 0.063,-0.121 0.053,-0.261 -0.025,-0.372 L 24.434,3.439 C 24.538,3.416 24.629,3.35 24.68,3.252 24.742,3.131 24.732,2.986 24.653,2.875 L 23.183,0.797 C 23.114,0.7 23.003,0.643 22.886,0.643 c -0.119,0 -0.23,0.058 -0.299,0.154 l -1.469,2.078 c -0.079,0.111 -0.089,0.257 -0.027,0.378 0.051,0.097 0.141,0.165 0.245,0.188 l -1.528,2.162 c -0.079,0.111 -0.089,0.247 -0.026,0.367 0.062,0.121 0.187,0.186 0.323,0.186 h 0.296 l -2.005,2.846 c -0.079,0.111 -0.089,0.278 -0.026,0.399 0.062,0.122 0.187,0.218 0.324,0.218 z"/>
	</g>
</svg>