<svg xmlns="http://www.w3.org/2000/svg" viewBox="0 0 20 20" >
  <g transform="matrix(0.03151017,0,0,0.0273437,1.9334123,3)">
    <path
       d="M 256,0 C 133.502,0 33.849,99.658 33.849,222.151 v 212.493 c 0,5.334 3.2,9.745 8.539,9.745 H 158.16 l -9.395,56.321 c -0.472,2.8 0.321,5.685 2.16,7.855 1.83,2.165 4.528,3.436 7.367,3.436 h 193.175 c 2.934,0 5.697,-1.373 7.536,-3.661 1.83,-2.281 2.528,-5.255 1.896,-8.113 L 348.486,444.39 h 118.885 c 5.339,0 10.779,-4.411 10.779,-9.745 V 222.151 C 478.151,99.658 378.498,0 256,0 Z m -86.304,492.682 8.046,-48.294 h 150.951 l 10.729,48.294 z m 11.265,-67.611 14.486,-86.929 h 109.642 l 19.313,86.929 z m 277.873,0 H 344.193 l -21.928,-98.682 c -0.991,-4.419 -4.905,-7.565 -9.432,-7.565 H 187.269 c -4.726,0 -8.753,3.415 -9.527,8.069 L 161.379,425.07 H 53.166 V 222.15 C 53.166,110.307 144.16,19.318 256,19.318 c 111.84,0 202.834,90.989 202.834,202.834 z" />
    <path
       d="m 256,115.905 c -37.277,0 -67.611,30.301 -67.611,67.55 v 106.308 c 0,5.334 3.2,9.745 8.539,9.745 h 115.905 c 5.339,0 10.779,-4.411 10.779,-9.745 V 183.549 C 323.611,146.249 293.277,115.905 256,115.905 Z m 48.294,164.285 h -96.588 v -96.735 c 0,-26.595 21.666,-48.232 48.294,-48.232 26.628,0 48.294,21.68 48.294,48.327 z" />
  </g>
</svg>
