<svg viewBox="-2 -2 20 20" xmlns="http://www.w3.org/2000/svg">
	<g fill="rgb(0,146,218)">
		<path d="M 0.5714286,3.357142 C 0.2548572,3.357142 0,3.612 0,3.928572 V 4.5 9.071428 10.214286 10.785714 12.5 H 1.142858 V 10.785714 10.214286 H 14.85714 V 11.92858 12.5 H 15.42858 16 V 11.92858 10.214286 9.071428 6.785714 6.214286 c 0,-0.316572 -0.25486,-0.571428 -0.57142,-0.571428 -0.31658,0 -0.57144,0.254856 -0.57144,0.571428 V 6.785714 9.071428 H 1.142858 V 4.5 3.928572 C 1.142858,3.612 0.888,3.357142 0.5714286,3.357142 Z M 4,4.5 c -0.946773,0 -1.714286,0.767511 -1.714286,1.714286 0,0.946773 0.767513,1.714286 1.714286,1.714286 0.946773,0 1.714286,-0.767513 1.714286,-1.714286 C 5.714286,5.267511 4.946773,4.5 4,4.5 Z m 2.857142,1.142858 v 2.285714 h 6.857138 c 0,-1.142858 -1.184195,-2.285714 -2.2857,-2.285714 z" />
	</g>
</svg>