<svg viewBox="-3 -3 20 20" xmlns="http://www.w3.org/2000/svg">
	<g fill="rgb(172,39,172)">
		<path d="M 3,1 C 2,1 1,2 1,3 L 1,14 13,14 13,3 C 13,2 12,1 11,1 z M 7,2 C 7,2 8,2 8,3 8,4 7,4 7,4 L 6,4 C 6,4 5,4 5,3 5,2 6,2 6,2 z m 3,0 c 0.552285,0 1,0.4477153 1,1 0,0.5522847 -0.447715,1 -1,1 C 9.4477153,4 9,3.5522847 9,3 9,2.4477153 9.4477153,2 10,2 z M 7,5.53125 c 1.932997,0 3.5,1.5670034 3.5,3.5 0,1.932997 -1.567003,3.5 -3.5,3.5 -1.932997,0 -3.5,-1.567003 -3.5,-3.5 0,-1.9329966 1.567003,-3.5 3.5,-3.5 z m -2,3.5 c 0,1.104569 0.895431,2 2,2 1.104569,0 2,-0.895431 2,-2 l -2,0 z"	/>
	</g>
</svg>