<svg viewBox="0 0 20 20" xmlns="http://www.w3.org/2000/svg">
	<g fill="rgb(102,102,102)" transform="matrix(0.52851795,0,0,0.50032834,1.5492623,2)">
		<path d="M 21.945,6.06 V 5.359 c 0,-0.796 -0.646,-1.441 -1.441,-1.441 H 18.139 C 18.336,3.562 18.448,3.121 18.448,2.673 18.447,1.2 17.249,0 15.777,0 c -1.472,0 -2.669,1.2 -2.669,2.673 0,0.448 0.112,0.889 0.309,1.245 h -1.94 c -0.796,0 -1.441,0.645 -1.441,1.441 V 6.06 H 6.822 c -1.207,0 -2.185,0.979 -2.185,2.186 v 21.546 c 0,1.207 0.978,2.187 2.185,2.187 h 18.334 c 1.207,0 2.186,-0.979 2.186,-2.187 V 8.246 C 27.342,7.039 26.363,6.06 25.156,6.06 Z M 14.187,2.674 c 0,-0.878 0.713,-1.594 1.589,-1.594 0.878,0 1.591,0.716 1.591,1.594 0,0.502 -0.234,0.933 -0.6,1.245 H 14.786 C 14.421,3.606 14.187,3.176 14.187,2.674 Z m 10.969,25.818 c 0,0.742 -0.602,1.344 -1.344,1.344 H 8.166 c -0.742,0 -1.344,-0.602 -1.344,-1.344 V 9.59 c 0,-0.743 0.602,-1.344 1.344,-1.344 h 1.868 c 0,0.591 0.479,1.071 1.07,1.071 h 9.769 c 0.592,0 1.07,-0.479 1.07,-1.071 h 1.869 c 0.741,0 1.344,0.602 1.344,1.344 z" />
		<circle r="1.899" cy="13.098" cx="10.852" />
		<path d="M 21.656,12.038 H 15.18 c -0.596,0 -1.08,0.475 -1.08,1.071 0,0.596 0.483,1.071 1.08,1.071 h 6.478 c 0.596,0 1.078,-0.475 1.078,-1.071 0,-0.596 -0.483,-1.071 -1.08,-1.071 z" />
		<circle r="1.899" cy="18.485001" cx="10.852" />
		<path d="M 21.656,17.391 H 15.18 c -0.596,0 -1.08,0.498 -1.08,1.094 0,0.596 0.483,1.092 1.08,1.092 h 6.478 c 0.596,0 1.078,-0.496 1.078,-1.092 0,-0.596 -0.483,-1.094 -1.08,-1.094 z" />
		<circle r="1.898" cy="24.242001" cx="10.852" />
		<path d="M 21.656,23.145 H 15.18 c -0.596,0 -1.08,0.498 -1.08,1.094 0,0.596 0.483,1.092 1.08,1.092 h 6.478 c 0.596,0 1.078,-0.497 1.078,-1.092 0,-0.596 -0.483,-1.094 -1.08,-1.094 z" />
	</g>
</svg>