<svg viewBox="0 0 20 20" xmlns="http://www.w3.org/2000/svg">
	<g fill="rgb(0,0,191)" transform="matrix(.0534 0 0 .0534 -.547 -.688)">
		<path d="m296 293c-6.07 0-8.74-1.33-12.4-3.17v-49.3l20.6-59.5c0.877-2.54 0.688-5.32-0.522-7.72-1.21-2.4-3.34-4.2-5.9-4.99l-21.9-6.83v-48c0-4.15-3.36-7.51-7.51-7.51h-7.7l-7.31-31.6c-0.788-3.41-3.82-5.82-7.32-5.82h-21.6v-10.7c0-3.96-3.21-7.17-7.17-7.17h-39c-3.96 0-7.17 3.21-7.17 7.17v10.7h-21.6c-3.5 0-6.53 2.41-7.32 5.82l-7.31 31.6h-7.7c-4.15 0-7.51 3.36-7.51 7.51v48l-21.9 6.83c-2.56 0.797-4.69 2.6-5.9 4.99-1.21 2.4-1.4 5.18-0.522 7.72l20.6 59.5v49.3c-3.64 1.85-6.31 3.18-12.4 3.18-6.12 0-8.78-1.35-12.5-3.22-4.47-2.27-10-5.1-20.3-5.1v17.3c6.12 0 8.78 1.35 12.5 3.22 4.47 2.27 10 5.09 20.3 5.09 10.3 0 15.8-2.82 20.3-5.1 3.68-1.87 6.34-3.22 12.5-3.22 6.12 0 8.78 1.35 12.5 3.22 4.47 2.27 10 5.1 20.3 5.1 10.3 0 15.8-2.82 20.3-5.1 3.68-1.87 6.34-3.22 12.5-3.22 6.12 0 8.78 1.35 12.5 3.22 4.47 2.27 10 5.1 20.3 5.1 10.3 0 15.8-2.82 20.3-5.1 3.68-1.87 6.34-3.22 12.5-3.22 6.12 0 8.78 1.35 12.5 3.22 4.47 2.27 10 5.1 20.3 5.1 10.3 0 15.8-2.82 20.3-5.09 3.69-1.87 6.35-3.22 12.5-3.22v-17.3c-10.3 0-15.8 2.82-20.3 5.1-3.69 1.87-6.35 3.22-12.5 3.22zm-161-172h6.16c3.5 0 6.53-2.41 7.32-5.82l7.32-31.6h84.6l7.31 31.6c0.787 3.41 3.82 5.82 7.32 5.82h6.16v35.8l-60.1-18.7c-1.92-0.598-3.98-0.598-5.9 0l-60.1 18.7v-35.8z"/>
		<path d="m296 329c-6.12 0-8.78-1.35-12.5-3.22-4.47-2.27-10-5.1-20.3-5.1-10.3 0-15.8 2.83-20.3 5.1-3.68 1.87-6.34 3.22-12.5 3.22-6.12 0-8.78-1.35-12.5-3.22-4.47-2.27-10-5.1-20.3-5.1-10.3 0-15.8 2.82-20.3 5.1-3.68 1.87-6.34 3.22-12.5 3.22-6.12 0-8.78-1.35-12.5-3.22-4.47-2.27-10-5.1-20.3-5.1s-15.8 2.82-20.3 5.1c-3.68 1.87-6.34 3.22-12.5 3.22-6.12 0-8.78-1.35-12.5-3.22-4.47-2.27-10-5.1-20.3-5.1v17.3c6.12 0 8.78 1.35 12.5 3.22 4.47 2.27 10 5.1 20.3 5.1 10.3 0 15.8-2.83 20.3-5.1 3.68-1.87 6.34-3.22 12.5-3.22 6.12 0 8.78 1.35 12.5 3.22 4.47 2.27 10 5.1 20.3 5.1 10.3 0 15.8-2.83 20.3-5.1 3.68-1.87 6.34-3.22 12.5-3.22 6.12 0 8.78 1.35 12.5 3.22 4.47 2.27 10 5.1 20.3 5.1 10.3 0 15.8-2.82 20.3-5.1 3.68-1.87 6.34-3.22 12.5-3.22 6.12 0 8.78 1.35 12.5 3.22 4.47 2.27 10 5.1 20.3 5.1 10.3 0 15.8-2.82 20.3-5.1 3.69-1.87 6.35-3.22 12.5-3.22v-17.3c-10.3 0-15.8 2.82-20.3 5.1-3.68 1.87-6.35 3.22-12.5 3.22z"/>
	</g>
	<g fill="rgb(0,191,0)">
		<rect width="7" height="2" x="3" y="9" rx="1"/>
		<g>
			<g transform="rotate(45,8,10)">
				<rect width="4" height="2" x="6" y="8" rx="1" />
				<rect width="2" height="4" x="8" y="8" rx="1" />
			</g>
		</g>
	</g>
</svg>